<?xml version="1.0" encoding="iso-8859-1"?>
<!-- Generator: Adobe Illustrator 16.0.0, SVG Export Plug-In . SVG Version: 6.00 Build 0)  -->
<!DOCTYPE svg PUBLIC "-//W3C//DTD SVG 1.1//EN" "http://www.w3.org/Graphics/SVG/1.1/DTD/svg11.dtd">
<svg version="1.1" id="Capa_1" xmlns="http://www.w3.org/2000/svg" xmlns:xlink="http://www.w3.org/1999/xlink" x="0px" y="0px"
	 width="32px" height="32px" viewBox="0 0 32 32" style="enable-background:new 0 0 32 32;" xml:space="preserve">
<g>
	<path d="M31.405,19.146c-3.038-5.834-14.564-2.237-16.311-1.652c-0.087-0.104-0.144-0.191-0.098-0.263
		c0.169-0.261,0.879-0.373,0.886-0.373c0.309-0.047,0.626-0.213,0.876-0.486c0.335-0.365,0.462-0.829,0.381-1.217
		c1.546-0.297,4.194-0.424,6.439-0.23c0.802,0.07,1.412-0.259,1.714-0.926c0.391-0.862,0.148-2.103-0.541-2.764
		c-0.543-0.516-1.264-0.607-2.021-0.243c-0.086,0.028-0.168,0.07-0.233,0.144c-0.204,0.221-0.188,0.564,0.032,0.769
		c0.223,0.202,0.566,0.188,0.77-0.033c0.17-0.186,0.178-0.453,0.049-0.655c0.517-0.109,0.883,0.083,1.115,0.321
		c0.562,0.538,0.767,1.588,0.449,2.29c-0.159,0.349-0.513,0.752-1.3,0.684c-1.217-0.105-4.642-0.186-6.657,0.249
		c-0.024-0.029-0.047-0.061-0.075-0.088c0.254-2.049-0.122-5.438-0.333-6.639c-0.136-0.776,0.233-1.165,0.569-1.353
		c0.671-0.378,1.733-0.265,2.319,0.248c0.257,0.211,0.48,0.56,0.417,1.083c-0.213-0.11-0.479-0.079-0.648,0.105
		c-0.202,0.222-0.188,0.566,0.033,0.771c0.223,0.203,0.566,0.188,0.77-0.034c0.065-0.071,0.101-0.157,0.122-0.246
		c0.298-0.787,0.144-1.495-0.418-1.991c-0.719-0.629-1.976-0.763-2.799-0.299c-0.639,0.359-0.914,0.994-0.774,1.788
		c0.381,2.178,0.487,4.77,0.339,6.345c-0.421-0.104-0.936,0.063-1.307,0.467c-0.251,0.273-0.389,0.604-0.408,0.914
		c0,0.003-0.132,0.738-0.412,0.91c-0.06,0.037-0.131,0.029-0.215,0.008c0.482-1.863,3.225-13.516-2.778-16.135
		C4.829-2.233,2.12,9.298,1.98,11.659c-0.139,2.361,6.043,5.07,5.487,6.043s-6.251-2.986-7.363,1.668
		c-1.109,4.65,6.967,5.347,6.98,5.348c-0.69,1.025-1.331,1.954-1.783,2.534c0.402-0.438,1.305-1.222,2.365-2.101
		c0.146,0.842,1.508,7.855,5.803,6.512c4.566-1.429,0.224-6.838,1.156-7.459c0.932-0.621,4.06,5.358,6.405,5.06
		C23.379,28.961,34.695,25.465,31.405,19.146z"/>
</g>
<g>
</g>
<g>
</g>
<g>
</g>
<g>
</g>
<g>
</g>
<g>
</g>
<g>
</g>
<g>
</g>
<g>
</g>
<g>
</g>
<g>
</g>
<g>
</g>
<g>
</g>
<g>
</g>
<g>
</g>
</svg>
