<?xml version="1.0" encoding="UTF-8" standalone="no"?>
<!-- Created with Inkscape (http://www.inkscape.org/) -->
<svg xmlns:dc="http://purl.org/dc/elements/1.1/" xmlns:cc="http://creativecommons.org/ns#" xmlns:rdf="http://www.w3.org/1999/02/22-rdf-syntax-ns#" xmlns:svg="http://www.w3.org/2000/svg" xmlns="http://www.w3.org/2000/svg" xmlns:sodipodi="http://sodipodi.sourceforge.net/DTD/sodipodi-0.dtd" xmlns:inkscape="http://www.inkscape.org/namespaces/inkscape" width="100" height="140" id="svg3033" version="1.1" inkscape:version="0.48.1 r9760" sodipodi:docname="grass.svg">
  <defs id="defs3035"/>
  <sodipodi:namedview id="base" pagecolor="#ffffff" bordercolor="#666666" borderopacity="1.0" inkscape:pageopacity="0.0" inkscape:pageshadow="2" inkscape:zoom="1.979899" inkscape:cx="130.62607" inkscape:cy="72.214641" inkscape:document-units="px" inkscape:current-layer="layer1" showgrid="false" inkscape:window-width="1366" inkscape:window-height="695" inkscape:window-x="0" inkscape:window-y="24" inkscape:window-maximized="1" showguides="true" inkscape:guide-bbox="true" inkscape:snap-page="true">
    <sodipodi:guide orientation="0,1" position="115.66247,678.31743" id="guide3288"/>
  </sodipodi:namedview>
  <metadata id="metadata3038">
    <rdf:RDF>
      <cc:Work rdf:about="">
        <dc:format>image/svg+xml</dc:format>
        <dc:type rdf:resource="http://purl.org/dc/dcmitype/StillImage"/>
        <dc:title/>
      </cc:Work>
    </rdf:RDF>
  </metadata>
  <g inkscape:label="Layer 1" inkscape:groupmode="layer" id="layer1" transform="translate(0,-912.36218)">
    <path style="fill:#008000;stroke:none" d="m 4.1443455,1000.7255 c 4.3512599,-1.24003 12.8826295,1.551 14.7165395,8.9152 0.77922,-13.99823 6.40398,-18.17173 11.46771,-21.33151 -6.81856,6.05821 -10.31487,11.04833 -9.38189,23.38261 3.13025,-6.9295 9.40344,-9.3909 15.27766,-5.9876 -8.70977,-2.6282 -13.74773,5.8034 -14.79735,11.1791 l -2.48899,0 c -1.38838,-4.8653 -1.06854,-14.0966 -14.7936795,-16.1578 z" id="rect4078" inkscape:connector-curvature="0" sodipodi:nodetypes="cccccccc"/>
    <path style="fill:#00d400;stroke:none" d="m 36.369375,998.04407 c 4.67566,1.61057 9.22802,3.15783 14.07917,13.54283 -0.24484,-9.7067 -2.62292,-18.55983 -7.05754,-27.76509 2.85338,4.16783 7.25722,9.27352 9.64843,29.12829 3.03164,-11.6514 6.73871,-16.54753 12.39521,-18.30724 -7.96969,5.45904 -9.57811,12.57394 -10.15896,22.24044 l -5.96688,0 c -0.60486,-8.7853 -5.74139,-14.5087 -12.93943,-18.83923 z" id="rect4083" inkscape:connector-curvature="0" sodipodi:nodetypes="cccccccc"/>
    <path style="fill:#00d400;stroke:none" d="m 64.125455,1001.3963 c 6.03364,0.6211 14.19701,8.4484 15.28259,15.487 1.65374,0 3.11785,0 4.7716,0 0.56252,-12.8625 2.49874,-21.70381 8.77122,-31.4123 -5.68288,6.47441 -9.63257,15.7148 -10.32136,27.4568 -1.69108,-8.5715 -4.26199,-15.99707 -11.33038,-17.56548 5.19475,1.77814 7.91719,7.19498 8.81386,17.06358 -4.29641,-7.6956 -9.41583,-11.1711 -15.98753,-11.0296 z" id="path4086" inkscape:connector-curvature="0" sodipodi:nodetypes="cccccccc"/>
    <path style="fill:#00aa00;stroke:none" d="m 47.239751,1052.3622 2.37035,0 c 0.40375,-11.7648 3.73647,-20.7917 9.95547,-27.1205 -5.7812,3.8583 -9.17404,11.5506 -10.90361,21.3332 -1.17966,-7.4643 -3.75673,-14.9752 -8.7229,-22.5658 5.06882,9.9166 7.50263,16.9421 7.30069,28.3531 z" id="path4088" inkscape:connector-curvature="0" sodipodi:nodetypes="cccccc"/>
    <path style="fill:#2d5016;stroke:none" d="m 6.3588255,1034.8762 c 3.7792595,4.5903 7.6794495,8.8151 7.8441095,17.3643 2.81583,0 5.63166,0 8.4475,0 0.53555,-7.289 3.59711,-13.946 15.95639,-10.5259 -6.23948,-2.7353 -14.12937,-3.3725 -17.43135,7.7771 0.009,-10.9289 2.85645,-18.4745 7.50889,-23.8676 -5.24051,4.959 -8.79098,12.3427 -9.92247,23.1972 -5.12325,-20.2584 -9.5644696,-23.269 -14.3473395,-29.2311 5.4606099,7.407 11.0743595,15.7383 11.7996895,29.3651 -3.52162,-8.7645 -6.5045396,-10.9485 -9.8554195,-14.0791 z" id="path4090" inkscape:connector-curvature="0" sodipodi:nodetypes="cccccccccc"/>
    <path style="fill:#44aa00;stroke:none" d="m 5.9546165,955.0233 c 11.7996895,9.05089 11.3303795,25.07433 11.3303795,25.07433 1.69844,0 3.39688,0 5.09532,0 -0.5091,-9.79098 2.61238,-18.63486 10.32473,-26.28112 -4.80855,4.20398 -9.58424,8.56331 -12.47013,21.85624 0.082,-22.07056 -7.16086,-27.3889 -12.4030696,-30.37078 8.8120896,6.69044 10.8343696,15.36895 10.1235896,27.95721 -1.86313,-8.61154 -5.25629,-14.7939 -12.0008195,-18.23588 z" id="path4092" inkscape:connector-curvature="0" sodipodi:nodetypes="cccccccc"/>
    <path style="fill:#2ca02c;stroke:none" d="m 32.302776,977.14771 c 5.83522,-6.47552 14.63301,-4.46093 15.42005,2.94992 1.89956,0 3.79915,0 5.69871,0 0.0967,-6.10642 -1.69765,-12.48789 7.77706,-17.23022 -5.77345,1.78571 -10.01691,5.47233 -9.92246,14.54847 -4.29935,-12.08077 -12.63588,-9.50991 -14.07917,-1.94426 1.36512,-5.71488 8.75945,-8.86884 11.73264,1.13974 -2.85174,-2.80404 -8.76303,-9.0521 -16.62683,0.53635 z" id="path4094" inkscape:connector-curvature="0" sodipodi:nodetypes="cccccccc"/>
    <path style="fill:#00d400;stroke:none" d="m 63.075826,953.21312 c 5.91598,5.73223 9.32293,13.45851 9.58724,26.88451 0.89391,0 1.78784,0 2.68175,0 -0.022,-8.21402 1.00351,-16.93675 7.17367,-28.15834 -3.44556,5.63866 -6.82059,11.50996 -8.51454,22.92893 -3.51398,-17.26018 -7.24576,-17.53015 -10.92812,-21.6551 z" id="path4096" inkscape:connector-curvature="0" sodipodi:nodetypes="cccccc"/>
    <path style="fill:#44aa00;stroke:none" d="m 60.89386,1025.5673 c 12.487052,1.5343 17.772342,13.4263 17.800102,26.5493 1.02799,0 2.32419,0 3.35218,0 1.56617,-5.8915 5.19181,-12.4066 15.319469,-12.9394 -7.592789,-1.0223 -11.601759,0.8458 -16.425689,9.185 -4.07199,-19.0747 -12.35261,-22.567 -20.046062,-22.7949 z" id="path4098" inkscape:connector-curvature="0" sodipodi:nodetypes="cccccc"/>
    <path style="fill:#008000;stroke:none" d="m 17.675084,932.17356 c 4.35126,-1.23999 12.88263,1.55104 14.71654,8.91519 0.77922,-13.99818 6.40398,-18.17168 11.46771,-21.33146 -6.81856,6.05821 -10.31487,11.04833 -9.38189,23.38263 3.13025,-6.9295 9.40344,-9.39097 15.27766,-5.9876 -8.70977,-2.62821 -13.74773,5.80337 -14.79735,11.17912 l -2.48899,0 c -1.38838,-4.86536 -1.06854,-14.09668 -14.79368,-16.15788 z" id="rect4078-8" inkscape:connector-curvature="0" sodipodi:nodetypes="cccccccc"/>
    <path style="fill:#00d400;stroke:none" d="m 21.900114,929.49217 c 4.67566,1.61057 9.22802,3.15779 14.07917,13.54282 -0.24484,-9.70667 -2.62292,-18.55982 -7.05754,-27.76508 2.85338,4.16783 7.25722,9.27352 9.64843,29.12832 3.03164,-11.6514 6.73871,-16.54756 12.39521,-18.30727 -7.96969,5.45906 -9.57811,12.57394 -10.15896,22.24048 l -5.96688,0 c -0.60486,-8.78536 -5.74139,-14.50877 -12.93943,-18.83927 z" id="rect4083-6" inkscape:connector-curvature="0" sodipodi:nodetypes="cccccccc"/>
    <path style="fill:#00d400;stroke:none" d="m 29.656194,932.84435 c 6.03364,0.62113 14.19701,8.44845 15.28259,15.48709 1.65374,0 3.11785,0 4.7716,0 0.56252,-12.86259 2.49874,-21.70385 8.77122,-31.41234 -5.68288,6.47441 -9.63257,15.71479 -10.32136,27.45676 -1.69108,-8.57142 -4.26199,-15.99703 -11.33038,-17.56544 5.19475,1.77814 7.91719,7.19496 8.81386,17.0636 -4.29641,-7.69566 -9.41583,-11.17114 -15.98753,-11.02967 z" id="path4086-2" inkscape:connector-curvature="0" sodipodi:nodetypes="cccccccc"/>
    <path style="fill:#00aa00;stroke:none" d="m 47.913342,948.33144 2.37035,0 c 0.40375,-11.76481 3.73647,-20.79167 9.95547,-27.12048 -5.7812,3.85825 -9.17404,11.55055 -10.90361,21.33317 -1.17966,-7.46432 -3.75673,-14.97522 -8.722895,-22.56575 5.068815,9.91661 7.502625,16.94211 7.300685,28.35306 z" id="path4088-4" inkscape:connector-curvature="0" sodipodi:nodetypes="cccccc"/>
    <path style="fill:#2d5016;stroke:none" d="m 29.246702,930.96713 c 3.77926,4.59032 7.67945,8.81514 7.84411,17.36431 2.81583,0 5.63166,0 8.4475,0 0.53555,-7.28903 3.59711,-13.94596 15.95639,-10.52586 -6.23948,-2.73528 -14.12937,-3.37254 -17.43135,7.77707 0.009,-10.92894 2.85645,-18.47454 7.50889,-23.86755 -5.24051,4.95891 -8.79098,12.34265 -9.92247,23.19711 -5.12325,-20.25833 -9.56447,-23.26894 -14.34734,-29.23104 5.46061,7.40694 11.07436,15.7383 11.79969,29.36513 -3.52162,-8.76458 -6.50454,-10.94859 -9.85542,-14.07917 z" id="path4090-7" inkscape:connector-curvature="0" sodipodi:nodetypes="cccccccccc"/>
    <path style="fill:#44aa00;stroke:none" d="m 42.913922,923.25711 c 11.79969,9.05089 11.33038,25.07433 11.33038,25.07433 1.69844,0 3.39688,0 5.09532,0 -0.5091,-9.79098 2.61238,-18.63486 10.32473,-26.28112 -4.80855,4.20398 -9.58424,8.56331 -12.47013,21.85624 0.082,-22.07056 -7.16086,-27.3889 -12.40307,-30.37078 8.81209,6.69044 10.83437,15.36895 10.12359,27.95721 -1.86313,-8.61154 -5.25629,-14.7939 -12.00082,-18.23588 z" id="path4092-9" inkscape:connector-curvature="0" sodipodi:nodetypes="cccccccc"/>
    <path style="fill:#2ca02c;stroke:none" d="m 33.262082,945.38152 c 5.83522,-6.47552 14.63301,-4.46093 15.42005,2.94992 1.89956,0 3.79915,0 5.69871,0 0.0967,-6.10642 -1.69765,-12.48789 7.77706,-17.23022 -5.77345,1.78571 -10.01691,5.47233 -9.92246,14.54847 -4.29935,-12.08077 -12.63588,-9.50991 -14.07917,-1.94426 1.36512,-5.71488 8.75945,-8.86884 11.73264,1.13974 -2.85174,-2.80404 -8.76303,-9.0521 -16.62683,0.53635 z" id="path4094-3" inkscape:connector-curvature="0" sodipodi:nodetypes="cccccccc"/>
    <path style="fill:#00d400;stroke:none" d="m 52.035132,921.44693 c 5.91598,5.73223 9.32293,13.45851 9.58724,26.88451 0.89391,0 1.78784,0 2.68175,0 -0.022,-8.21402 1.00351,-16.93675 7.17367,-28.15834 -3.44556,5.63866 -6.82059,11.50996 -8.51454,22.92893 -3.51398,-17.26018 -7.24576,-17.53015 -10.92812,-21.6551 z" id="path4096-9" inkscape:connector-curvature="0" sodipodi:nodetypes="cccccc"/>
    <path style="fill:#44aa00;stroke:none" d="m 41.358242,921.72018 c 12.48705,1.53431 17.77234,13.42627 17.8001,26.5493 1.02799,0 2.32419,0 3.35218,0 1.56617,-5.89151 5.19181,-12.40665 15.31947,-12.93943 -7.59279,-1.02234 -11.60176,0.84581 -16.42569,9.18498 -4.07199,-19.07469 -12.35261,-22.56701 -20.04606,-22.79485 z" id="path4098-2" inkscape:connector-curvature="0" sodipodi:nodetypes="cccccc"/>
  </g>
</svg>