<?xml version="1.0" encoding="UTF-8"?>
<svg xmlns="http://www.w3.org/2000/svg" xmlns:xlink="http://www.w3.org/1999/xlink" width="64px" height="64px" viewBox="0 0 128 128" version="1.1">
<g id="surface1">
<path style=" stroke:none;fill-rule:nonzero;fill:rgb(0%,0%,0%);fill-opacity:1;" d="M 93.898438 13.804688 C 82.199219 4.054688 65.023438 -0.691406 44.160156 0.0820312 C 34.5625 0.433594 26.328125 1.855469 21.300781 2.925781 C 19.316406 2.8125 17.480469 3.195312 15.859375 4.132812 C 11.566406 6.613281 9.734375 12.4375 10.710938 20.527344 C 11.601562 27.945312 14.746094 36.621094 19.558594 44.960938 C 28.367188 60.214844 39.796875 69.808594 48.289062 69.808594 C 49.820312 69.808594 51.257812 69.492188 52.566406 68.84375 L 92.839844 127.011719 C 93.285156 127.65625 94 128 94.726562 128 C 95.179688 128 95.632812 127.867188 96.03125 127.59375 C 97.074219 126.871094 97.335938 125.441406 96.613281 124.398438 L 56.035156 65.789062 C 56.601562 64.964844 57.070312 64.027344 57.441406 62.984375 C 66.707031 53.800781 80.527344 51.0625 92.730469 48.648438 C 97.894531 47.625 102.777344 46.660156 106.925781 45.277344 C 113.101562 43.21875 116.828125 41.976562 117.460938 38.636719 C 118.304688 34.144531 113.136719 29.835938 93.898438 13.804688 Z M 50.773438 64.601562 C 45.601562 67.59375 33.144531 59.3125 23.535156 42.664062 C 19.023438 34.851562 16.085938 26.792969 15.265625 19.976562 C 14.59375 14.410156 15.433594 10.316406 17.558594 8.535156 C 18.074219 8.398438 19.472656 8.03125 21.574219 7.578125 C 27.691406 8.355469 37.5 16.375 45.390625 30.042969 C 49.902344 37.859375 52.839844 45.914062 53.660156 52.734375 C 54.390625 58.796875 53.339844 63.121094 50.773438 64.601562 Z M 105.472656 40.925781 C 101.601562 42.214844 96.859375 43.152344 91.839844 44.144531 C 80.691406 46.351562 68.253906 48.816406 58.464844 56.078125 C 58.460938 54.847656 58.382812 53.550781 58.21875 52.1875 C 57.324219 44.765625 54.179688 36.089844 49.367188 27.75 C 43.535156 17.644531 36.550781 10.035156 30.03125 6.042969 C 45.902344 3.679688 73.148438 2.484375 90.960938 17.332031 C 103.753906 27.988281 112.992188 35.6875 112.964844 37.738281 C 112.523438 38.574219 108.613281 39.878906 105.472656 40.925781 Z M 105.472656 40.925781 "/>
</g>
</svg>
